<?xml version="1.0" standalone="no"?>
<!DOCTYPE svg PUBLIC "-//W3C//DTD SVG 20010904//EN"
 "http://www.w3.org/TR/2001/REC-SVG-20010904/DTD/svg10.dtd">
<svg version="1.0" xmlns="http://www.w3.org/2000/svg"
 width="500.000000pt" height="500.000000pt" viewBox="0 0 500.000000 500.000000"
 preserveAspectRatio="xMidYMid meet">

<g transform="translate(0.000000,500.000000) scale(0.100000,-0.100000)"
fill="#000000" stroke="none">
<path d="M2055 3495 c-5 -2 -109 -33 -230 -69 -121 -36 -254 -78 -295 -93 -62
-22 -98 -28 -202 -33 l-128 -5 66 -95 c106 -153 146 -186 259 -216 85 -23 86
-23 79 45 -15 135 61 220 197 221 125 0 215 -120 181 -243 l-10 -37 512 0 512
0 -1 78 c0 91 17 127 80 170 34 23 50 27 111 27 80 0 122 -21 165 -83 20 -30
24 -48 24 -115 l0 -79 41 5 c22 2 70 19 108 36 57 28 75 43 116 99 27 37 61
88 75 115 l26 47 -28 13 c-21 9 -139 13 -447 15 l-419 3 -150 99 -149 100
-241 -1 c-133 0 -246 -2 -252 -4z m565 -128 l95 -62 -253 -3 -254 -2 -96 45
c-52 25 -93 48 -89 51 25 25 95 33 292 33 l210 1 95 -63z"/>
<path d="M1734 3162 c-17 -11 -39 -37 -49 -58 -16 -34 -16 -42 -4 -78 19 -53
59 -81 116 -81 39 0 49 5 79 37 46 50 48 112 6 159 -36 40 -102 50 -148 21z"/>
<path d="M3160 3174 c-43 -15 -62 -31 -81 -70 l-20 -43 20 -46 c24 -53 73 -81
127 -71 133 25 132 206 -1 229 -16 3 -37 3 -45 1z"/>
<path d="M1100 2861 c-7 -15 -6 -23 6 -35 14 -14 153 -16 1378 -16 1310 0
1364 1 1380 18 15 18 15 20 -2 35 -17 16 -125 17 -1385 17 -1340 0 -1366 0
-1377 -19z"/>
<path d="M1118 2733 c-25 -6 -31 -34 -12 -54 17 -18 65 -19 1379 -19 l1362 0
19 21 c19 21 18 21 -4 40 -23 18 -67 18 -1375 17 -744 0 -1359 -2 -1369 -5z"/>
<path d="M3758 2633 c-8 -10 -36 -53 -63 -95 -27 -43 -51 -78 -54 -78 -3 1
-33 40 -66 88 -49 70 -66 88 -88 90 -16 2 -35 -2 -43 -9 -28 -23 -15 -64 56
-166 39 -56 70 -106 70 -112 0 -6 -34 -63 -75 -128 -41 -64 -75 -125 -75 -135
0 -22 34 -58 55 -58 22 0 45 26 109 128 67 105 53 107 136 -18 24 -36 48 -68
54 -72 33 -23 86 5 86 44 0 11 -34 69 -76 129 l-75 110 22 37 c13 20 44 69 71
109 48 73 60 117 36 141 -18 18 -63 15 -80 -5z"/>
<path d="M1114 2546 c3 -11 6 -112 6 -223 l0 -203 108 0 c132 0 173 11 226 60
93 86 101 230 16 311 -51 49 -112 66 -248 72 -112 5 -114 4 -108 -17z m188
-86 c44 0 54 -4 84 -34 30 -30 34 -40 34 -84 0 -40 -6 -57 -26 -81 -27 -32
-82 -53 -132 -49 -29 2 -29 2 -36 83 -10 139 -8 178 10 171 9 -3 38 -6 66 -6z"/>
<path d="M2248 2563 l-48 -4 0 -220 0 -219 55 0 55 0 0 225 c0 124 -3 224 -7
223 -5 -1 -29 -3 -55 -5z"/>
<path d="M2423 2559 c3 -8 45 -108 94 -224 l88 -210 46 -3 c44 -3 45 -2 58 35
11 33 36 91 132 313 11 25 27 58 35 74 13 25 13 28 -2 22 -8 -3 -37 -6 -64 -6
l-48 0 -31 -87 c-44 -123 -74 -193 -81 -193 -3 0 -12 17 -19 38 -8 20 -32 83
-54 140 l-40 102 -36 0 c-20 0 -47 3 -60 7 -19 5 -23 3 -18 -8z"/>
<path d="M1670 2340 l0 -220 50 0 50 0 0 70 0 70 43 0 c41 -1 43 -2 83 -68
l40 -67 69 -3 c66 -3 68 -2 54 16 -8 11 -33 47 -56 80 l-42 60 24 16 c36 24
68 92 61 130 -10 51 -41 92 -88 115 -38 18 -62 21 -166 21 l-122 0 0 -220z
m252 103 c22 -20 23 -42 2 -71 -13 -19 -24 -22 -84 -22 l-69 0 2 55 2 55 64 0
c46 0 70 -5 83 -17z"/>
<path d="M2997 2533 c-3 -15 -4 -113 -4 -218 l2 -190 173 -3 172 -2 0 45 0 45
-72 1 c-40 1 -94 1 -120 0 l-48 -2 0 41 0 40 63 2 c34 1 80 2 102 3 l40 0 0
45 0 45 -100 1 -100 2 -3 36 -3 36 115 0 116 0 0 50 0 50 -164 0 -164 0 -5
-27z"/>
<path d="M4015 2405 c-30 -30 -31 -54 -4 -89 40 -51 109 -23 109 44 0 66 -59
92 -105 45z"/>
<path d="M1099 1999 c-26 -50 -83 -48 1383 -50 752 0 1372 2 1378 6 14 8 13
38 -2 53 -9 9 -329 12 -1380 12 l-1367 0 -12 -21z"/>
<path d="M1101 1861 c-7 -13 -7 -23 2 -35 11 -15 112 -16 1292 -16 704 0 1321
0 1372 0 84 0 92 2 98 20 17 53 89 50 -1386 50 -1324 0 -1369 -1 -1378 -19z"/>
</g>
</svg>
